<?xml version="1.0" encoding="iso-8859-1"?>
<!-- Generator: Adobe Illustrator 16.0.0, SVG Export Plug-In . SVG Version: 6.00 Build 0)  -->
<!DOCTYPE svg PUBLIC "-//W3C//DTD SVG 1.1//EN" "http://www.w3.org/Graphics/SVG/1.1/DTD/svg11.dtd">
<svg version="1.1" id="Capa_1" xmlns="http://www.w3.org/2000/svg" xmlns:xlink="http://www.w3.org/1999/xlink" x="0px" y="0px"
	 width="37.271px" height="37.271px" viewBox="0 0 37.271 37.271" style="enable-background:new 0 0 37.271 37.271;"
	 xml:space="preserve">
<g>
	<path d="M14.29,24.49c0,2.418-1.285,4.381-2.871,4.381c-1.588,0-2.873-1.963-2.873-4.381c0-2.421,1.285-4.382,2.873-4.382
		C13.005,20.109,14.29,22.07,14.29,24.49z M25.639,20.109c-1.588,0-2.873,1.961-2.873,4.382c0,2.418,1.285,4.381,2.873,4.381
		c1.586,0,2.871-1.963,2.871-4.381C28.51,22.07,27.225,20.109,25.639,20.109z M37.271,20.289c0,7.754-3.949,14.039-14.395,14.039
		h-8.481C3.59,34.328,0,28.043,0,20.289c0-3.236,1.123-6.215,3.009-8.59C1.574,6.277,3.711,2.944,3.711,2.944
		C6.893,2.906,9.736,4.773,11.682,6.5c0.879-0.164,1.786-0.25,2.715-0.25h8.479c0.965,0,1.905,0.093,2.813,0.269
		c1.944-1.729,4.801-3.61,7.989-3.573c0,0,0.002,0.004,0.006,0.01c0,0,0,0,0.002,0.002c0.003,0.006,0.011,0.016,0.019,0.026
		c0,0.001,0,0.003,0.002,0.005c0.015,0.024,0.035,0.062,0.062,0.111c0,0.001,0,0.002,0.003,0.004
		c0.014,0.023,0.026,0.053,0.045,0.083c0.002,0.002,0.002,0.003,0.002,0.004c0.45,0.867,1.797,3.995,0.534,8.624
		C36.186,14.17,37.271,17.104,37.271,20.289z M32.365,24.27c-0.525-3.774-1.979-6.807-6.033-6.578
		c-2.256,0.131-5.252,0.785-8.234,0.812c-2.534,0.023-5.07-0.56-6.989-0.67c-4.054-0.229-5.508,2.658-6.031,6.436
		c-0.526,3.767,1.806,7.341,6.475,7.605c4.703,0.271,9.419,0.271,14.125,0C30.344,31.61,32.891,28.035,32.365,24.27z"/>
</g>
<g>
</g>
<g>
</g>
<g>
</g>
<g>
</g>
<g>
</g>
<g>
</g>
<g>
</g>
<g>
</g>
<g>
</g>
<g>
</g>
<g>
</g>
<g>
</g>
<g>
</g>
<g>
</g>
<g>
</g>
</svg>
